<svg width="92" height="74" viewBox="0 0 92 74" fill="none" xmlns="http://www.w3.org/2000/svg">
<path fill-rule="evenodd" clip-rule="evenodd" d="M32.0317 49.6255C42.0249 49.6255 50.126 41.5244 50.126 31.5312C50.126 21.5381 42.0249 13.437 32.0317 13.437C22.0386 13.437 13.9375 21.5381 13.9375 31.5312C13.9375 41.5244 22.0386 49.6255 32.0317 49.6255Z" fill="#FFEC65"/>
<path d="M32 54.4C33.7673 54.4 35.2 55.8326 35.2 57.6V60.8C35.2 62.5673 33.7673 64 32 64C30.2326 64 28.8 62.5673 28.8 60.8V57.6C28.8 55.8326 30.2326 54.4 32 54.4ZM52.3648 47.8393L54.6275 50.1021C55.8771 51.3517 55.8771 53.3776 54.6275 54.6275C53.3779 55.8771 51.3517 55.8771 50.1021 54.6275L47.8393 52.3648C46.5897 51.1149 46.5897 49.0889 47.8393 47.8393C49.0889 46.5894 51.1152 46.5894 52.3648 47.8393ZM11.6351 47.8393C12.8848 46.5894 14.911 46.5894 16.1606 47.8393C17.3142 48.9928 17.4029 50.808 16.4268 52.0633L16.1606 52.3648L13.8979 54.6275C12.6482 55.8771 10.6221 55.8771 9.37241 54.6275C8.21885 53.474 8.13011 51.6588 9.10621 50.4035L9.37241 50.1021L11.6351 47.8393ZM6.4 28.8C8.16729 28.8 9.6 30.2326 9.6 32C9.6 33.6411 8.36466 34.9936 6.77318 35.1785L6.4 35.2H3.2C1.4327 35.2 0 33.7673 0 32C0 30.3589 1.23534 29.0064 2.82681 28.8215L3.2 28.8H6.4ZM60.8 28.8C62.5673 28.8 64 30.2326 64 32C64 33.7673 62.5673 35.2 60.8 35.2H57.6C55.8326 35.2 54.4 33.7673 54.4 32C54.4 30.2326 55.8326 28.8 57.6 28.8H60.8ZM9.37251 9.37241C10.526 8.21888 12.3412 8.13014 13.5965 9.10621L13.898 9.37241L16.1607 11.6352C17.4104 12.8848 17.4104 14.911 16.1607 16.1606C15.0072 17.3142 13.192 17.4029 11.9367 16.4268L11.6352 16.1606L9.37251 13.8979C8.12281 12.6482 8.12281 10.6221 9.37251 9.37241ZM54.6275 9.37248C55.8771 10.6221 55.8771 12.6483 54.6275 13.8979L52.3648 16.1607C51.1149 17.4104 49.0889 17.4104 47.8393 16.1607C46.5894 14.911 46.5894 12.8849 47.8393 11.6352L50.1021 9.37248C51.3517 8.12278 53.3776 8.12278 54.6275 9.37248ZM32 0C33.7673 0 35.2 1.4327 35.2 3.2V6.4C35.2 8.16729 33.7673 9.6 32 9.6C30.2326 9.6 28.8 8.16729 28.8 6.4V3.2C28.8 1.4327 30.2326 0 32 0Z" fill="#FFEC65"/>
<g filter="url(#filter0_ii_2794_3197)">
<path d="M62.1992 16.2354C78.1274 16.2354 91.04 29.148 91.04 45.0762C91.0398 61.0042 78.1273 73.916 62.1992 73.916H42.3809V73.917H20.2373C9.21609 73.9168 0.28125 64.9822 0.28125 53.9609C0.281385 42.9398 9.21618 34.0051 20.2373 34.0049H21.3311C25.1991 34.0049 28.8229 35.0496 31.9375 36.8701C35.9864 24.8731 47.3332 16.2354 60.6963 16.2354H62.1992Z" fill="white"/>
</g>
<defs>
<filter id="filter0_ii_2794_3197" x="-56.9329" y="-31.4431" width="173.4" height="140.324" filterUnits="userSpaceOnUse" color-interpolation-filters="sRGB">
<feFlood flood-opacity="0" result="BackgroundImageFix"/>
<feBlend mode="normal" in="SourceGraphic" in2="BackgroundImageFix" result="shape"/>
<feColorMatrix in="SourceAlpha" type="matrix" values="0 0 0 0 0 0 0 0 0 0 0 0 0 0 0 0 0 0 127 0" result="hardAlpha"/>
<feOffset dx="25.4285" dy="-47.6785"/>
<feGaussianBlur stdDeviation="47.6785"/>
<feComposite in2="hardAlpha" operator="arithmetic" k2="-1" k3="1"/>
<feColorMatrix type="matrix" values="0 0 0 0 0 0 0 0 0 0 0 0 0 0 0 0 0 0 0.2 0"/>
<feBlend mode="normal" in2="shape" result="effect1_innerShadow_2794_3197"/>
<feColorMatrix in="SourceAlpha" type="matrix" values="0 0 0 0 0 0 0 0 0 0 0 0 0 0 0 0 0 0 127 0" result="hardAlpha"/>
<feOffset dx="-57.2142" dy="34.9642"/>
<feGaussianBlur stdDeviation="47.6785"/>
<feComposite in2="hardAlpha" operator="arithmetic" k2="-1" k3="1"/>
<feColorMatrix type="matrix" values="0 0 0 0 1 0 0 0 0 1 0 0 0 0 1 0 0 0 1 0"/>
<feBlend mode="normal" in2="effect1_innerShadow_2794_3197" result="effect2_innerShadow_2794_3197"/>
</filter>
</defs>
</svg>
