<svg width="114" height="114" viewBox="0 0 114 114" fill="none" xmlns="http://www.w3.org/2000/svg">
<path fill-rule="evenodd" clip-rule="evenodd" d="M57.0663 25.6052C74.8666 25.6052 89.2966 40.0352 89.2966 57.8356C89.2966 75.6359 74.8666 90.0659 57.0663 90.0659C39.266 90.0659 24.8359 75.6359 24.8359 57.8356C24.8359 40.0352 39.266 25.6052 57.0663 25.6052Z" fill="#FFEC65"/>
<path d="M57 17.1C60.1481 17.1 62.7 14.5481 62.7 11.4V5.70004C62.7 2.55194 60.1481 4.94719e-05 57 4.94719e-05C53.8519 4.94719e-05 51.3 2.55194 51.3 5.70004V11.4C51.3 14.5481 53.8519 17.1 57 17.1ZM93.2748 28.7862L97.3052 24.7557C99.5311 22.5299 99.5311 18.9212 97.3052 16.6948C95.0794 14.4689 91.4701 14.4689 89.2443 16.6948L85.2138 20.7252C82.988 22.9517 82.988 26.5603 85.2138 28.7862C87.4397 31.0126 91.0489 31.0126 93.2748 28.7862ZM20.7251 28.7862C22.9511 31.0126 26.5602 31.0126 28.7861 28.7862C30.8409 26.7315 30.9989 23.4982 29.2603 21.2622L28.7861 20.7252L24.7556 16.6948C22.5296 14.4689 18.9206 14.4689 16.6946 16.6948C14.6398 18.7494 14.4818 21.9828 16.2204 24.2188L16.6946 24.7557L20.7251 28.7862ZM11.4 62.7C14.548 62.7 17.1 60.1481 17.1 57C17.1 54.0768 14.8995 51.6676 12.0647 51.3384L11.4 51.3H5.7C2.552 51.3 0 53.8519 0 57C0 59.9233 2.20045 62.3324 5.03526 62.6617L5.7 62.7H11.4ZM108.3 62.7C111.448 62.7 114 60.1481 114 57C114 53.8519 111.448 51.3 108.3 51.3H102.6C99.4519 51.3 96.9 53.8519 96.9 57C96.9 60.1481 99.4519 62.7 102.6 62.7H108.3ZM16.6948 97.3054C18.7495 99.3601 21.9828 99.5182 24.2188 97.7796L24.7558 97.3054L28.7863 93.2749C31.0123 91.0489 31.0123 87.4398 28.7863 85.2139C26.7315 83.1591 23.4983 83.0011 21.2622 84.7397L20.7253 85.2139L16.6948 89.2444C14.4688 91.4704 14.4688 95.0794 16.6948 97.3054ZM97.3052 97.3053C99.5311 95.0793 99.5311 91.4702 97.3052 89.2443L93.2748 85.2138C91.0483 82.9878 87.4397 82.9878 85.2138 85.2138C82.9874 87.4398 82.9874 91.0488 85.2138 93.2748L89.2443 97.3053C91.4701 99.5313 95.0788 99.5313 97.3052 97.3053ZM57 114C60.1481 114 62.7 111.448 62.7 108.3V102.6C62.7 99.452 60.1481 96.9 57 96.9C53.8519 96.9 51.3 99.452 51.3 102.6V108.3C51.3 111.448 53.8519 114 57 114Z" fill="#FFEC65"/>
</svg>
